<mxfile host="app.diagrams.net" modified="2024-03-09T12:04:15.254Z" agent="Mozilla/5.0 (X11; Linux x86_64) AppleWebKit/537.36 (KHTML, like Gecko) Chrome/122.0.0.0 Safari/537.36" version="24.0.1" etag="viAYWWGwZCfT8ZwQpUBs" type="github">
  <diagram name="Page-1" id="31kL542jptBf9IF8P8UT">
    <mxGraphModel>
      <root>
        <mxCell id="0" />
        <mxCell id="1" parent="0" />
      </root>
    </mxGraphModel>
  </diagram>
</mxfile>
